<?xml version="1.0" encoding="UTF-8" standalone="no"?>
<!-- Created with Inkscape (http://www.inkscape.org/) -->

<svg
   width="512"
   height="512"
   viewBox="0 0 512 512"
   version="1.1"
   id="svg1"
   xml:space="preserve"
   inkscape:version="1.4 (86a8ad7, 2024-10-11)"
   sodipodi:docname="dessinicone2.svg"
   xmlns:inkscape="http://www.inkscape.org/namespaces/inkscape"
   xmlns:sodipodi="http://sodipodi.sourceforge.net/DTD/sodipodi-0.dtd"
   xmlns="http://www.w3.org/2000/svg"
   xmlns:svg="http://www.w3.org/2000/svg"><sodipodi:namedview
     id="namedview1"
     pagecolor="#ffffff"
     bordercolor="#000000"
     borderopacity="0.25"
     inkscape:showpageshadow="2"
     inkscape:pageopacity="0.0"
     inkscape:pagecheckerboard="0"
     inkscape:deskcolor="#d1d1d1"
     inkscape:document-units="px"
     inkscape:zoom="1.5917969"
     inkscape:cx="256"
     inkscape:cy="256"
     inkscape:window-width="1920"
     inkscape:window-height="1017"
     inkscape:window-x="-8"
     inkscape:window-y="-8"
     inkscape:window-maximized="1"
     inkscape:current-layer="layer1" /><defs
     id="defs1" /><g
     inkscape:label="Calque 1"
     inkscape:groupmode="layer"
     id="layer1"><g
       id="g1"
       transform="matrix(0.99472898,0.02791224,-0.02643834,0.99103016,8.8304797,-3.7621337)"><circle
         cx="256"
         cy="256"
         r="256"
         fill="#f48fb1"
         id="circle1" /><circle
         cx="256"
         cy="256"
         r="220"
         fill="#fce4ec"
         id="circle2" /><path
         d="m 170,210 q 0,-60 86,-60 86,0 86,60 v 130 q 0,20 -20,20 H 190 q -20,0 -20,-20 z"
         fill="#c2185b"
         id="path2" /><path
         d="m 180,210 q 0,-40 76,-40 76,0 76,40 z"
         fill="#e91e63"
         id="path3" /><path
         d="m 210,140 q 46,-30 92,0 l -7,10 q -39,-30 -78,0 z"
         fill="#880e4f"
         id="path4" /><path
         d="m 158,220 q -28,40 0,80 z"
         fill="#880e4f"
         id="path5" /><path
         d="m 354,220 q 28,40 0,80 z"
         fill="#880e4f"
         id="path6" /><path
         d="m 210,260 30,30"
         id="path7" /></g></g></svg>
